<svg height="2174" width="720" xmlns="http://www.w3.org/2000/svg">
<rect height="2174" fill="#555" width="720"></rect>
<text fill="#7f7" font-family="Courier New" font-size="12" xml:space="preserve">
<tspan x="10" y="26">9 megabytes installed</tspan>
<tspan x="10" y="42"></tspan>
<tspan x="10" y="58">node_modules</tspan>
<tspan x="10" y="74">└─┬ koala@1.0.0 </tspan>
<tspan x="10" y="90">  ├── basic-auth@1.1.0 </tspan>
<tspan x="10" y="106">  ├── bluebird@2.11.0 </tspan>
<tspan x="10" y="122">  ├─┬ commander@2.9.0 </tspan>
<tspan x="10" y="138">  │ └── graceful-readlink@1.0.1 </tspan>
<tspan x="10" y="154">  ├── debug@2.6.4 </tspan>
<tspan x="10" y="170">  ├── delegates@0.1.0 </tspan>
<tspan x="10" y="186">  ├─┬ koa@0.21.0 </tspan>
<tspan x="10" y="202">  │ ├─┬ accepts@1.3.3 </tspan>
<tspan x="10" y="218">  │ │ └── negotiator@0.6.1 </tspan>
<tspan x="10" y="234">  │ ├── co@4.6.0 </tspan>
<tspan x="10" y="250">  │ ├── composition@2.3.0 </tspan>
<tspan x="10" y="266">  │ ├── content-disposition@0.5.2 </tspan>
<tspan x="10" y="282">  │ ├── content-type@1.0.2 </tspan>
<tspan x="10" y="298">  │ ├─┬ cookies@0.5.1 </tspan>
<tspan x="10" y="314">  │ │ └── keygrip@1.0.1 </tspan>
<tspan x="10" y="330">  │ ├── destroy@1.0.4 </tspan>
<tspan x="10" y="346">  │ ├── error-inject@1.0.0 </tspan>
<tspan x="10" y="362">  │ ├── escape-html@1.0.3 </tspan>
<tspan x="10" y="378">  │ ├── fresh@0.3.0 </tspan>
<tspan x="10" y="394">  │ ├─┬ http-assert@1.2.0 </tspan>
<tspan x="10" y="410">  │ │ └─┬ http-errors@1.4.0 </tspan>
<tspan x="10" y="426">  │ │   └── inherits@2.0.1 </tspan>
<tspan x="10" y="442">  │ ├─┬ http-errors@1.6.1 </tspan>
<tspan x="10" y="458">  │ │ ├── depd@1.1.0 </tspan>
<tspan x="10" y="474">  │ │ ├── inherits@2.0.3 </tspan>
<tspan x="10" y="490">  │ │ └── setprototypeof@1.0.3 </tspan>
<tspan x="10" y="506">  │ ├── koa-compose@2.5.1 </tspan>
<tspan x="10" y="522">  │ ├── koa-is-json@1.0.0 </tspan>
<tspan x="10" y="538">  │ ├─┬ mime-types@2.1.15 </tspan>
<tspan x="10" y="554">  │ │ └── mime-db@1.27.0 </tspan>
<tspan x="10" y="570">  │ ├─┬ on-finished@2.3.0 </tspan>
<tspan x="10" y="586">  │ │ └── ee-first@1.1.1 </tspan>
<tspan x="10" y="602">  │ ├── only@0.0.2 </tspan>
<tspan x="10" y="618">  │ ├── parseurl@1.3.1 </tspan>
<tspan x="10" y="634">  │ ├── statuses@1.3.1 </tspan>
<tspan x="10" y="650">  │ ├─┬ type-is@1.6.15 </tspan>
<tspan x="10" y="666">  │ │ └── media-typer@0.3.0 </tspan>
<tspan x="10" y="682">  │ └── vary@1.1.1 </tspan>
<tspan x="10" y="698">  ├─┬ koa-body-parsers@1.1.0 </tspan>
<tspan x="10" y="714">  │ ├─┬ co-busboy@1.3.1 </tspan>
<tspan x="10" y="730">  │ │ ├── black-hole-stream@0.0.1 </tspan>
<tspan x="10" y="746">  │ │ ├─┬ busboy@0.2.14 </tspan>
<tspan x="10" y="762">  │ │ │ ├─┬ dicer@0.2.5 </tspan>
<tspan x="10" y="778">  │ │ │ │ └── streamsearch@0.1.2 </tspan>
<tspan x="10" y="794">  │ │ │ └─┬ readable-stream@1.1.14 </tspan>
<tspan x="10" y="810">  │ │ │   ├── isarray@0.0.1 </tspan>
<tspan x="10" y="826">  │ │ │   └── string_decoder@0.10.31 </tspan>
<tspan x="10" y="842">  │ │ └── chan@0.6.1 </tspan>
<tspan x="10" y="858">  │ ├─┬ fs-cp@1.4.0 </tspan>
<tspan x="10" y="874">  │ │ └─┬ mkdirp-then@1.2.0 </tspan>
<tspan x="10" y="890">  │ │   └── mkdirp@0.5.1 </tspan>
<tspan x="10" y="906">  │ └─┬ raw-body@2.2.0 </tspan>
<tspan x="10" y="922">  │   ├── iconv-lite@0.4.15 </tspan>
<tspan x="10" y="938">  │   └── unpipe@1.0.0 </tspan>
<tspan x="10" y="954">  ├─┬ koa-cash@1.1.0 </tspan>
<tspan x="10" y="970">  │ ├── bytes@2.4.0 </tspan>
<tspan x="10" y="986">  │ ├── compressible@2.0.10 </tspan>
<tspan x="10" y="1002">  │ └── stream-to-array@2.3.0 </tspan>
<tspan x="10" y="1018">  ├── koa-compress@1.0.9 </tspan>
<tspan x="10" y="1034">  ├─┬ koa-csrf@2.5.0 </tspan>
<tspan x="10" y="1050">  │ └─┬ csrf@3.0.6 </tspan>
<tspan x="10" y="1066">  │   ├── rndm@1.2.0 </tspan>
<tspan x="10" y="1082">  │   ├── tsscmp@1.0.5 </tspan>
<tspan x="10" y="1098">  │   └─┬ uid-safe@2.1.4 </tspan>
<tspan x="10" y="1114">  │     └── random-bytes@1.0.0 </tspan>
<tspan x="10" y="1130">  ├─┬ koa-error@1.1.3 </tspan>
<tspan x="10" y="1146">  │ └─┬ swig@1.4.2 </tspan>
<tspan x="10" y="1162">  │   ├─┬ optimist@0.6.1 </tspan>
<tspan x="10" y="1178">  │   │ ├── minimist@0.0.8 </tspan>
<tspan x="10" y="1194">  │   │ └── wordwrap@0.0.3 </tspan>
<tspan x="10" y="1210">  │   └─┬ uglify-js@2.4.24 </tspan>
<tspan x="10" y="1226">  │     ├── async@0.2.10 </tspan>
<tspan x="10" y="1242">  │     ├─┬ source-map@0.1.34 </tspan>
<tspan x="10" y="1258">  │     │ └── amdefine@1.0.1 </tspan>
<tspan x="10" y="1274">  │     ├── uglify-to-browserify@1.0.2 </tspan>
<tspan x="10" y="1290">  │     └─┬ yargs@3.5.4 </tspan>
<tspan x="10" y="1306">  │       ├── camelcase@1.2.1 </tspan>
<tspan x="10" y="1322">  │       ├── decamelize@1.2.0 </tspan>
<tspan x="10" y="1338">  │       ├── window-size@0.1.0 </tspan>
<tspan x="10" y="1354">  │       └── wordwrap@0.0.2 </tspan>
<tspan x="10" y="1370">  ├─┬ koa-etag@2.1.1 </tspan>
<tspan x="10" y="1386">  │ └── etag@1.8.0 </tspan>
<tspan x="10" y="1402">  ├─┬ koa-file-server@2.3.1 </tspan>
<tspan x="10" y="1418">  │ ├── hash-stream@1.2.0 </tspan>
<tspan x="10" y="1434">  │ ├─┬ resolve-path@1.3.3 </tspan>
<tspan x="10" y="1450">  │ │ ├─┬ http-errors@1.5.1 </tspan>
<tspan x="10" y="1466">  │ │ │ ├── inherits@2.0.3 </tspan>
<tspan x="10" y="1482">  │ │ │ └── setprototypeof@1.0.2 </tspan>
<tspan x="10" y="1498">  │ │ └── path-is-absolute@1.0.1 </tspan>
<tspan x="10" y="1514">  │ └─┬ spdy-push@1.0.2 </tspan>
<tspan x="10" y="1530">  │   ├── native-or-bluebird@1.2.0 </tspan>
<tspan x="10" y="1546">  │   └── spdy@1.32.5 </tspan>
<tspan x="10" y="1562">  ├─┬ koa-json@1.1.3 </tspan>
<tspan x="10" y="1578">  │ └─┬ streaming-json-stringify@3.1.0 </tspan>
<tspan x="10" y="1594">  │   ├── json-stringify-safe@5.0.1 </tspan>
<tspan x="10" y="1610">  │   └─┬ readable-stream@2.2.9 </tspan>
<tspan x="10" y="1626">  │     ├── buffer-shims@1.0.0 </tspan>
<tspan x="10" y="1642">  │     ├── core-util-is@1.0.2 </tspan>
<tspan x="10" y="1658">  │     ├── isarray@1.0.0 </tspan>
<tspan x="10" y="1674">  │     ├── process-nextick-args@1.0.7 </tspan>
<tspan x="10" y="1690">  │     ├── string_decoder@1.0.0 </tspan>
<tspan x="10" y="1706">  │     └── util-deprecate@1.0.2 </tspan>
<tspan x="10" y="1722">  ├─┬ koa-logger@1.3.1 </tspan>
<tspan x="10" y="1738">  │ ├── bytes@1.0.0 </tspan>
<tspan x="10" y="1754">  │ ├─┬ chalk@1.1.3 </tspan>
<tspan x="10" y="1770">  │ │ ├── ansi-styles@2.2.1 </tspan>
<tspan x="10" y="1786">  │ │ ├── escape-string-regexp@1.0.5 </tspan>
<tspan x="10" y="1802">  │ │ ├─┬ has-ansi@2.0.0 </tspan>
<tspan x="10" y="1818">  │ │ │ └── ansi-regex@2.1.1 </tspan>
<tspan x="10" y="1834">  │ │ ├── strip-ansi@3.0.1 </tspan>
<tspan x="10" y="1850">  │ │ └── supports-color@2.0.0 </tspan>
<tspan x="10" y="1866">  │ ├── humanize-number@0.0.2 </tspan>
<tspan x="10" y="1882">  │ └── passthrough-counter@1.0.0 </tspan>
<tspan x="10" y="1898">  ├─┬ koa-qs@2.0.0 </tspan>
<tspan x="10" y="1914">  │ ├── merge-descriptors@0.0.2 </tspan>
<tspan x="10" y="1930">  │ └── qs@2.3.3 </tspan>
<tspan x="10" y="1946">  ├── koa-response-time@1.0.2 </tspan>
<tspan x="10" y="1962">  ├─┬ koa-safe-jsonp@0.3.1 </tspan>
<tspan x="10" y="1978">  │ └── jsonp-body@1.0.0 </tspan>
<tspan x="10" y="1994">  ├─┬ koa-session@3.4.0 </tspan>
<tspan x="10" y="2010">  │ └── deep-equal@1.0.1 </tspan>
<tspan x="10" y="2026">  ├── koa-trace@1.0.0 </tspan>
<tspan x="10" y="2042">  ├── merge-descriptors@1.0.1 </tspan>
<tspan x="10" y="2058">  ├── ms@0.7.3 </tspan>
<tspan x="10" y="2074">  ├─┬ mz@2.6.0 </tspan>
<tspan x="10" y="2090">  │ ├── any-promise@1.3.0 </tspan>
<tspan x="10" y="2106">  │ ├── object-assign@4.1.1 </tspan>
<tspan x="10" y="2122">  │ └─┬ thenify-all@1.6.0 </tspan>
<tspan x="10" y="2138">  │   └── thenify@3.2.1 </tspan>
<tspan x="10" y="2154">  └── qs@6.4.0</tspan>
</text>
</svg>
